#N canvas 962 156 957 830 10;
#X declare -path ../bin -lib pof -lib pofVGpath;
#X text 409 10 This is a Pof path using ofxNanoVG;
#X text 437 27 see: https://github.com/satoruhiga/ofxNanoVG;
#X obj 28 12 declare -path ../bin -lib pof -lib pofVGpath;
#X obj 50 127 pofhead;
#X obj 436 48 pofpath;
#X msg 297 217 res \$1;
#X floatatom 297 198 5 0 0 0 - - -;
#X msg 314 247 clear;
#X msg 408 502 strokeWidth \$1;
#X floatatom 408 481 5 0 0 0 - - -;
#X msg 396 286 arc 0 0 0 150 100 0 180;
#X obj 610 314 until;
#X msg 610 269 50;
#X msg 641 267 10;
#X msg 501 100 100 100;
#X msg 440 100 -100 100;
#X msg 565 100 100 -100;
#X floatatom 573 469 5 0 0 0 - - -;
#N canvas 236 354 450 300 curveToRandom 0;
#X obj 143 11 inlet;
#X obj 143 36 t b b b;
#X obj 143 58 random 200;
#X obj 143 80 - 100;
#X obj 171 104 random 200;
#X obj 171 126 - 100;
#X obj 208 126 random 200;
#X obj 207 148 - 100;
#X obj 143 174 pack f f f;
#X msg 143 193 curveTo \$1 \$2 \$3;
#X obj 143 215 outlet;
#X connect 0 0 1 0;
#X connect 1 0 2 0;
#X connect 1 1 4 0;
#X connect 1 2 6 0;
#X connect 2 0 3 0;
#X connect 3 0 8 0;
#X connect 4 0 5 0;
#X connect 5 0 8 1;
#X connect 6 0 7 0;
#X connect 7 0 8 2;
#X connect 8 0 9 0;
#X connect 9 0 10 0;
#X restore 610 335 pd curveToRandom;
#X msg 397 317 arc 0 0 0 100 100 0 360;
#X msg 376 99 -100 -100;
#X msg 376 129 moveTo \$1 \$2;
#X msg 503 157 100 100;
#X msg 442 157 -100 100;
#X msg 567 157 100 -100;
#X msg 378 156 -100 -100;
#X msg 511 215 100 100;
#X msg 450 215 -100 100;
#X msg 575 215 100 -100;
#X msg 386 214 -100 -100;
#X msg 378 186 lineTo \$1 \$2;
#X msg 386 244 curveTo \$1 \$2;
#X obj 338 576 t a;
#X obj 131 156 loadbang;
#X msg 131 177 filled 0 \, strokeWidth 1 \, fat 0;
#X msg 186 506 fat \$1;
#X msg 154 441 0;
#X msg 231 446 20;
#X floatatom 174 470 5 0 0 0 - - -;
#X msg 191 443 1;
#X obj 61 381 pofrotate y;
#X floatatom 108 342 5 0 0 0 - - -;
#X obj 732 172 pofwin;
#X msg 722 122 framerate 5;
#X obj 179 380 tgl 15 0 empty empty empty 17 7 0 10 -262144 -1 -1 0
1;
#X obj 179 325 tgl 15 0 empty empty empty 17 7 0 10 -262144 -1 -1 0
1;
#X obj 61 505 pofscale 1 1 1;
#X floatatom 97 469 5 0 0 0 - - -;
#X obj 173 354 metro 400;
#X msg 176 688 depth_correction \$1;
#X floatatom 207 646 5 0 0 0 - - -;
#X floatatom 344 645 5 0 0 0 - - -;
#X msg 329 684 scale_correction \$1;
#X msg 211 615 0;
#X msg 330 620 0.5;
#X msg 406 453 strokeColor 1 0 0 1;
#X obj 520 363 loadbang;
#X msg 521 390 5;
#X msg 430 583 strokeColor 0 0 0 1;
#X msg 402 426 fillColor 1 1 1 1;
#X msg 390 623 1;
#X msg 517 688 segmented \$1;
#X msg 517 662 1;
#X msg 548 663 0;
#X obj 61 600 pofVGpath 1024 1024;
#X msg 564 444 2048;
#X floatatom 117 222 5 0 0 0 - - -;
#X obj 55 276 pofrotate x;
#X obj 54 161 t a a;
#X obj 34 677 pofsphere 50 50;
#X obj 24 264 tgl 15 0 empty empty empty 17 7 0 10 -262144 -1 -1 0
1;
#X obj 55 245 pofvisible 1;
#X obj 55 317 poffbo 512 512;
#X obj 61 443 poftranslate;
#X floatatom 108 417 5 0 0 0 - - -;
#X floatatom 79 411 5 0 0 0 - - -;
#X msg 254 478 -1;
#X obj 34 349 t a a;
#X msg 682 442 128;
#X msg 573 492 size \$1 \$1;
#X msg 611 445 512;
#X msg 646 446 256;
#X obj 177 414 * 2;
#X obj 282 767 pack f f;
#X obj 305 742 t b f;
#X msg 282 788 xlate \$1 \$2;
#X floatatom 310 716 5 0 0 0 - - -;
#X floatatom 273 726 5 0 0 0 - - -;
#X msg 596 405 1024;
#X msg 631 538 0;
#X obj 585 580 / 1;
#X obj 447 648 - 512;
#X obj 598 645 tgl 15 0 empty empty empty 17 7 0 10 -262144 -1 -1 0
1;
#X connect 3 0 68 0;
#X connect 5 0 32 0;
#X connect 6 0 5 0;
#X connect 7 0 32 0;
#X connect 8 0 32 0;
#X connect 9 0 8 0;
#X connect 10 0 32 0;
#X connect 11 0 18 0;
#X connect 12 0 11 0;
#X connect 13 0 11 0;
#X connect 14 0 21 0;
#X connect 15 0 21 0;
#X connect 16 0 21 0;
#X connect 17 0 79 0;
#X connect 18 0 32 0;
#X connect 19 0 32 0;
#X connect 20 0 21 0;
#X connect 21 0 32 0;
#X connect 22 0 30 0;
#X connect 23 0 30 0;
#X connect 24 0 30 0;
#X connect 25 0 30 0;
#X connect 26 0 31 0;
#X connect 27 0 31 0;
#X connect 28 0 31 0;
#X connect 29 0 31 0;
#X connect 30 0 32 0;
#X connect 31 0 32 0;
#X connect 32 0 64 0;
#X connect 33 0 34 0;
#X connect 34 0 32 0;
#X connect 35 0 32 0;
#X connect 36 0 38 0;
#X connect 37 0 38 0;
#X connect 38 0 35 0;
#X connect 39 0 38 0;
#X connect 40 0 73 0;
#X connect 41 0 40 1;
#X connect 43 0 42 0;
#X connect 44 0 82 0;
#X connect 45 0 48 0;
#X connect 46 0 64 0;
#X connect 47 0 46 1;
#X connect 47 0 46 2;
#X connect 47 0 46 3;
#X connect 48 0 44 0;
#X connect 49 0 64 0;
#X connect 50 0 49 0;
#X connect 51 0 52 0;
#X connect 52 0 64 0;
#X connect 53 0 50 0;
#X connect 54 0 51 0;
#X connect 55 0 32 0;
#X connect 56 0 57 0;
#X connect 56 0 12 0;
#X connect 56 0 62 0;
#X connect 56 0 55 0;
#X connect 56 0 37 0;
#X connect 57 0 9 0;
#X connect 57 0 60 0;
#X connect 58 0 32 0;
#X connect 59 0 32 0;
#X connect 60 0 51 0;
#X connect 61 0 64 0;
#X connect 62 0 61 0;
#X connect 63 0 61 0;
#X connect 65 0 17 0;
#X connect 66 0 67 1;
#X connect 67 0 72 0;
#X connect 68 1 71 0;
#X connect 70 0 71 0;
#X connect 71 0 67 0;
#X connect 72 0 77 0;
#X connect 73 0 46 0;
#X connect 74 0 73 3;
#X connect 75 0 73 2;
#X connect 76 0 35 0;
#X connect 77 1 40 0;
#X connect 78 0 17 0;
#X connect 79 0 32 0;
#X connect 80 0 17 0;
#X connect 81 0 17 0;
#X connect 82 0 38 0;
#X connect 83 0 85 0;
#X connect 84 0 83 0;
#X connect 84 1 83 1;
#X connect 85 0 64 0;
#X connect 86 0 84 0;
#X connect 87 0 83 0;
#X connect 88 0 17 0;
#X connect 89 0 17 0;
#X connect 90 0 91 0;
#X connect 91 0 86 0;
#X connect 92 0 61 0;
